<svg width="21" height="21" viewBox="0 0 21 21" fill="none" xmlns="http://www.w3.org/2000/svg">
<g clip-path="url(#clip0_66_736)">
<path d="M1.448 5.60152H7.152C7.43853 6.70744 8.43611 7.53018 9.63042 7.53018C10.8247 7.53018 11.8223 6.70744 12.1088 5.60152H20.6595C21.0131 5.60152 21.2999 5.31468 21.2999 4.96113C21.2999 4.60759 21.0131 4.32075 20.6595 4.32075H12.1088C11.8223 3.21482 10.8247 2.39209 9.63042 2.39209C8.43611 2.39209 7.43853 3.21482 7.152 4.32075H1.448C1.09446 4.32075 0.807617 4.60759 0.807617 4.96113C0.807617 5.31468 1.09446 5.60152 1.448 5.60152ZM9.63042 3.67286C10.3408 3.67286 10.9187 4.25071 10.9187 4.96113C10.9187 5.67156 10.3408 6.24941 9.63042 6.24941C8.91999 6.24941 8.34214 5.67156 8.34214 4.96113C8.34214 4.25071 8.91999 3.67286 9.63042 3.67286Z" fill="#444444"/>
<path d="M20.6595 9.44379H19.2881C19.0016 8.33787 18.004 7.51514 16.8097 7.51514C15.6154 7.51514 14.6178 8.33787 14.3313 9.44379H1.448C1.09446 9.44379 0.807617 9.73063 0.807617 10.0842C0.807617 10.4377 1.09446 10.7246 1.448 10.7246H14.3313C14.6178 11.8305 15.6154 12.6532 16.8097 12.6532C18.004 12.6532 19.0016 11.8305 19.2881 10.7246H20.6595C21.0131 10.7246 21.2999 10.4377 21.2999 10.0842C21.2999 9.73063 21.0131 9.44379 20.6595 9.44379ZM16.8097 11.3725C16.0993 11.3725 15.5215 10.7946 15.5215 10.0842C15.5215 9.37375 16.0993 8.79591 16.8097 8.79591C17.5202 8.79591 18.098 9.37375 18.098 10.0842C18.098 10.7946 17.5202 11.3725 16.8097 11.3725Z" fill="#444444"/>
<path d="M20.6595 14.5671H8.25157C7.96509 13.4612 6.96757 12.6384 5.77393 12.6384C4.57962 12.6384 3.58204 13.4612 3.29552 14.5671H1.448C1.09446 14.5671 0.807617 14.8539 0.807617 15.2075C0.807617 15.561 1.09446 15.8479 1.448 15.8479H3.29552C3.58204 16.9538 4.57962 17.7765 5.77393 17.7765C6.96757 17.7765 7.96509 16.9538 8.25157 15.8479H20.6595C21.0131 15.8479 21.2999 15.561 21.2999 15.2075C21.2999 14.8539 21.0131 14.5671 20.6595 14.5671ZM5.77393 16.4957C5.06351 16.4957 4.48566 15.9179 4.48566 15.2075C4.48566 14.497 5.06351 13.9192 5.77393 13.9192C6.48353 13.9192 7.06137 14.497 7.06137 15.2075C7.06137 15.9179 6.48353 16.4957 5.77393 16.4957Z" fill="#444444"/>
</g>
<defs>
<clipPath id="clip0_66_736">
<rect width="21" height="21" fill="white"/>
</clipPath>
</defs>
</svg>
