<svg width="20" height="20" viewBox="0 0 20 20" fill="none" xmlns="http://www.w3.org/2000/svg">
<path d="M7.80174 7.63157C7.80174 7.63157 5.1684 7.92324 3.41174 8.11824C3.2534 8.13741 3.1134 8.24324 3.0609 8.40407C3.0084 8.56491 3.0609 8.73241 3.17757 8.83824C4.48257 10.0291 6.4434 11.8124 6.4434 11.8124C6.44174 11.8124 5.90507 14.4066 5.5484 16.1374C5.5184 16.2941 5.57507 16.4599 5.71174 16.5591C5.84757 16.6582 6.02257 16.6599 6.16007 16.5824C7.69674 15.7091 9.9984 14.3957 9.9984 14.3957C9.9984 14.3957 12.3009 15.7091 13.8351 16.5832C13.9751 16.6599 14.1501 16.6582 14.2859 16.5591C14.4226 16.4599 14.4792 16.2941 14.4484 16.1382C14.0917 14.4066 13.5559 11.8124 13.5559 11.8124C13.5559 11.8124 15.5167 10.0291 16.8217 8.84074C16.9384 8.73157 16.9901 8.56407 16.9384 8.40407C16.8867 8.24407 16.7467 8.13824 16.5884 8.11991C14.8317 7.92324 12.1976 7.63157 12.1976 7.63157C12.1976 7.63157 11.1059 5.21657 10.3784 3.60657C10.3101 3.46241 10.1667 3.36157 9.9984 3.36157C9.83007 3.36157 9.6859 3.46324 9.6209 3.60657C8.89257 5.21657 7.80174 7.63157 7.80174 7.63157Z" fill="#F4DC00"/>
</svg>
