<svg viewBox="0 0 48 48" xml:space="preserve" xmlns="http://www.w3.org/2000/svg"><path d="M31 48a1 1 0 0 1-1-1V1a1 1 0 1 1 2 0v46a1 1 0 0 1-1 1z" fill="#e48b53" class="fill-000000"></path><path d="M37 31h-6a1 1 0 1 1 0-2h4.996c-.133-16.802-3.585-26.66-5.014-27.002a.991.991 0 0 1-.991-.999C29.991.447 30.447 0 31 0c4.188 0 7 15.512 7 30a1 1 0 0 1-1 1zM17 18c-3.859 0-7-3.141-7-7V1a1 1 0 1 1 2 0v10c0 2.757 2.243 5 5 5s5-2.243 5-5V1a1 1 0 1 1 2 0v10c0 3.859-3.141 7-7 7z" fill="#e48b53" class="fill-000000"></path><path d="M17 48a1 1 0 0 1-1-1V1a1 1 0 1 1 2 0v46a1 1 0 0 1-1 1z" fill="#e48b53" class="fill-000000"></path></svg>