<svg width="36" height="36" viewBox="0 0 36 36" fill="none" xmlns="http://www.w3.org/2000/svg">
<path fill-rule="evenodd" clip-rule="evenodd" d="M18.1435 0.156738C13.294 0.156738 12.6869 0.177571 10.7822 0.263877C4.29736 0.561483 0.693343 4.15955 0.395736 10.6504C0.307942 12.5565 0.287109 13.1636 0.287109 18.0131C0.287109 22.8626 0.307942 23.4712 0.394248 25.3759C0.691855 31.8608 4.28992 35.4648 10.7807 35.7624C12.6869 35.8487 13.294 35.8695 18.1435 35.8695C22.993 35.8695 23.6016 35.8487 25.5063 35.7624C31.9852 35.4648 35.5981 31.8667 35.8913 25.3759C35.9791 23.4712 35.9999 22.8626 35.9999 18.0131C35.9999 13.1636 35.9791 12.5565 35.8928 10.6518C35.6011 4.17294 31.9986 0.562971 25.5078 0.265365C23.6016 0.177571 22.993 0.156738 18.1435 0.156738ZM18.1435 3.37559C22.9112 3.37559 23.4766 3.39345 25.3605 3.47976C30.1996 3.69999 32.4599 5.99602 32.6801 10.7994C32.7664 12.6818 32.7828 13.2472 32.7828 18.0149C32.7828 22.784 32.7649 23.348 32.6801 25.2303C32.4584 30.0293 30.204 32.3298 25.3605 32.55C23.4766 32.6363 22.9142 32.6541 18.1435 32.6541C13.3759 32.6541 12.8104 32.6363 10.928 32.55C6.07706 32.3283 3.82864 30.0218 3.60841 25.2289C3.5221 23.3465 3.50425 22.7825 3.50425 18.0134C3.50425 13.2457 3.52359 12.6818 3.60841 10.7979C3.83013 5.99602 6.0845 3.6985 10.928 3.47827C12.8119 3.39345 13.3759 3.37559 18.1435 3.37559ZM8.97406 18.0136C8.97406 12.9498 13.0795 8.84431 18.1433 8.84431C23.2071 8.84431 27.3126 12.9498 27.3126 18.0136C27.3126 23.0788 23.2071 27.1843 18.1433 27.1843C13.0795 27.1843 8.97406 23.0774 8.97406 18.0136ZM18.1437 23.965C14.8567 23.965 12.1916 21.3014 12.1916 18.0129C12.1916 14.7258 14.8567 12.0607 18.1437 12.0607C21.4308 12.0607 24.0959 14.7258 24.0959 18.0129C24.0959 21.3014 21.4308 23.965 18.1437 23.965ZM25.5317 8.4819C25.5317 7.29892 26.4915 6.33913 27.6759 6.33913C28.8589 6.33913 29.8172 7.29892 29.8172 8.4819C29.8172 9.66489 28.8589 10.6247 27.6759 10.6247C26.4915 10.6247 25.5317 9.66489 25.5317 8.4819Z" fill="#444444"/>
</svg>
