<svg width="37" height="37" viewBox="0 0 37 37" fill="none" xmlns="http://www.w3.org/2000/svg">
<path fill-rule="evenodd" clip-rule="evenodd" d="M18.3776 0.810547C8.51644 0.810547 0.52124 8.80575 0.52124 18.667C0.52124 28.5281 8.51644 36.5234 18.3776 36.5234C28.2388 36.5234 36.234 28.5281 36.234 18.667C36.234 8.80575 28.2388 0.810547 18.3776 0.810547ZM24.9861 25.946C21.8582 26.1603 14.8913 26.1603 11.7679 25.946C8.38112 25.7139 7.98679 24.0562 7.96149 18.6666C7.98679 13.2665 8.38558 11.6193 11.7679 11.3871C14.8913 11.1728 21.8597 11.1728 24.9861 11.3871C28.3743 11.6193 28.7672 13.2769 28.794 18.6666C28.7672 24.0667 28.3699 25.7139 24.9861 25.946ZM22.718 18.6608L15.4013 15.1818V22.1517L22.718 18.6608Z" fill="#444444"/>
</svg>
