<svg width="31" height="29" viewBox="0 0 31 29" fill="none" xmlns="http://www.w3.org/2000/svg">
<path d="M29.8433 3.3049H1.15672C0.849936 3.3049 0.555721 3.13081 0.338794 2.82091C0.121868 2.51102 0 2.09071 0 1.65245C0 1.21419 0.121868 0.793886 0.338794 0.483991C0.555721 0.174096 0.849936 0 1.15672 0H29.8433C30.1501 0 30.4443 0.174096 30.6612 0.483991C30.8781 0.793886 31 1.21419 31 1.65245C31 2.09071 30.8781 2.51102 30.6612 2.82091C30.4443 3.13081 30.1501 3.3049 29.8433 3.3049Z" fill="#444444"/>
<path d="M29.8433 15.7754H1.15672C0.849936 15.7754 0.555721 15.6013 0.338794 15.2914C0.121868 14.9815 0 14.5612 0 14.1229C0 13.6847 0.121868 13.2643 0.338794 12.9545C0.555721 12.6446 0.849936 12.4705 1.15672 12.4705H29.8433C30.1501 12.4705 30.4443 12.6446 30.6612 12.9545C30.8781 13.2643 31 13.6847 31 14.1229C31 14.5612 30.8781 14.9815 30.6612 15.2914C30.4443 15.6013 30.1501 15.7754 29.8433 15.7754Z" fill="#444444"/>
<path d="M29.8433 28.2458H1.15672C0.849936 28.2458 0.555721 28.0717 0.338794 27.7618C0.121868 27.4519 0 27.0316 0 26.5934C0 26.1551 0.121868 25.7348 0.338794 25.4249C0.555721 25.115 0.849936 24.9409 1.15672 24.9409H29.8433C30.1501 24.9409 30.4443 25.115 30.6612 25.4249C30.8781 25.7348 31 26.1551 31 26.5934C31 27.0316 30.8781 27.4519 30.6612 27.7618C30.4443 28.0717 30.1501 28.2458 29.8433 28.2458Z" fill="#444444"/>
</svg>
