<svg width="34" height="34" viewBox="0 0 34 34" fill="none" xmlns="http://www.w3.org/2000/svg">
<path d="M14.7156 25.022C9.0312 25.022 4.3562 20.4001 4.3562 14.6626C4.3562 8.97822 8.97808 4.30322 14.7156 4.30322C20.4531 4.30322 25.075 8.9251 25.075 14.6626C25.0218 20.4001 20.4 25.022 14.7156 25.022ZM14.7156 5.84384C9.82808 5.84384 5.8437 9.82822 5.8437 14.7157C5.8437 19.6032 9.82808 23.5876 14.7156 23.5876C19.6031 23.5876 23.5874 19.6032 23.5874 14.7157C23.5343 9.82822 19.55 5.84384 14.7156 5.84384Z" fill="#444444"/>
<path d="M28.528 29.6438L21.303 22.472L22.4717 21.3032L29.6436 28.5282L28.528 29.6438Z" fill="#444444"/>
</svg>
